# xmcd
#
# Track frame offsets: 
#        150
#        10790
#        26840
#        36502
#        48438
#        60344
#        70837
#        80437
#        89024
#        99237
#        112398
#        122088
#        130077
#        141572
#        153272
#        168147
#        182006
#        195605
#        203792
#        215642
#
# Disc length: 3034 seconds
#
# Revision: 0
# Processed by: cddbd v1.5.2PL0 Copyright (c) Steve Scherf et al.
# Submitted via: ExactAudioCopy v1.0b3
#
DISCID=1f0bd814
DTITLE=Alvin ROBINSON - compilation
DYEAR=2014
DGENRE=R&B
TTITLE0=Alvin ROBINSON - baby don't you do it [ATCO 45-6581]
TTITLE1=Alvin ROBINSON - let me down easy [ATCO 45-6581]
TTITLE2=A1. Lazy Mary
TTITLE3=A2. Truly
TTITLE4=A3. Wake Up (And Face Reality)
TTITLE5=A4. They Said It Couldn't Be Done
TTITLE6=A5. Baby Don't Blame Me
TTITLE7=A6. I'm Leaving You Today
TTITLE8=A7. Haul Off And Die Over You 
TTITLE9=A8. Pain In My Heart
TTITLE10=A9. Oh Red
TTITLE11=B1. Dedicated To Domino
TTITLE12=B2. Something You Got
TTITLE13=B3. Searchin'
TTITLE14=B4. Fever
TTITLE15=B5. Down Home Girl
TTITLE16=B6. How Can I Get Over You
TTITLE17=B7. I'm Gonna Put Some Hurt On You
TTITLE18=B8. Bottom Of My Soul
TTITLE19=B9. Let The Good Times Roll
EXTD=
EXTT0=
EXTT1=
EXTT2=
EXTT3=
EXTT4=
EXTT5=
EXTT6=
EXTT7=
EXTT8=
EXTT9=
EXTT10=
EXTT11=
EXTT12=
EXTT13=
EXTT14=
EXTT15=
EXTT16=
EXTT17=
EXTT18=
EXTT19=
PLAYORDER=
